{"accessors":[{"bufferView":0,"byteOffset":0,"componentType":5126,"count":3,"max":[0.833333015441895],"min":[0.0],"normalized":false,"type":"SCALAR"},{"bufferView":1,"byteOffset":0,"componentType":5126,"count":3,"max":[1.0,1.20000004768372,0.0],"min":[1.0,1.0,0.0],"normalized":false,"type":"VEC3"},{"bufferView":2,"byteOffset":0,"componentType":5126,"count":1,"max":[0.0],"min":[0.0],"normalized":false,"type":"SCALAR"},{"bufferView":3,"byteOffset":0,"componentType":5126,"count":1,"max":[1.0,1.0,0.0],"min":[1.0,1.0,0.0],"normalized":false,"type":"VEC3"},{"bufferView":4,"byteOffset":0,"componentType":5126,"count":2,"max":[2.0],"min":[0.0],"normalized":false,"type":"SCALAR"},{"bufferView":5,"byteOffset":0,"componentType":5126,"count":2,"max":[0.0,0.0,0.0,1.0],"min":[0.0,0.0,0.0,1.0],"normalized":false,"type":"VEC4"},{"bufferView":6,"byteOffset":0,"componentType":5126,"count":3,"max":[2.0],"min":[0.0],"normalized":false,"type":"SCALAR"},{"bufferView":7,"byteOffset":0,"componentType":5126,"count":3,"max":[1.10000002384186,1.10000002384186,0.0],"min":[1.0,1.0,0.0],"normalized":false,"type":"VEC3"},{"bufferView":8,"byteOffset":0,"componentType":5126,"count":2,"max":[2.0],"min":[0.0],"normalized":false,"type":"SCALAR"},{"bufferView":9,"byteOffset":0,"componentType":5126,"count":2,"max":[0.0,0.0,0.0,1.0],"min":[0.0,0.0,0.0,1.0],"normalized":false,"type":"VEC4"},{"bufferView":10,"byteOffset":0,"componentType":5126,"count":3,"max":[2.0],"min":[0.0],"normalized":false,"type":"SCALAR"},{"bufferView":11,"byteOffset":0,"componentType":5126,"count":3,"max":[1.10000002384186,1.10000002384186,0.0],"min":[1.0,1.0,0.0],"normalized":false,"type":"VEC3"},{"bufferView":12,"byteOffset":0,"componentType":5126,"count":2,"max":[2.0],"min":[0.0],"normalized":false,"type":"SCALAR"},{"bufferView":13,"byteOffset":0,"componentType":5126,"count":2,"max":[0.0,0.0,0.0,1.0],"min":[0.0,0.0,0.0,1.0],"normalized":false,"type":"VEC4"},{"bufferView":14,"byteOffset":0,"componentType":5126,"count":3,"max":[2.0],"min":[0.0],"normalized":false,"type":"SCALAR"},{"bufferView":15,"byteOffset":0,"componentType":5126,"count":3,"max":[1.10000002384186,1.10000002384186,0.0],"min":[1.0,1.0,0.0],"normalized":false,"type":"VEC3"},{"bufferView":16,"byteOffset":0,"componentType":5126,"count":1,"max":[0.0],"min":[0.0],"normalized":false,"type":"SCALAR"},{"bufferView":17,"byteOffset":0,"componentType":5126,"count":1,"max":[0.0,0.0,0.0,1.0],"min":[0.0,0.0,0.0,1.0],"normalized":false,"type":"VEC4"},{"bufferView":18,"byteOffset":0,"componentType":5126,"count":1,"max":[0.0],"min":[0.0],"normalized":false,"type":"SCALAR"},{"bufferView":19,"byteOffset":0,"componentType":5126,"count":1,"max":[1.0,1.0,0.0],"min":[1.0,1.0,0.0],"normalized":false,"type":"VEC3"}],"animations":[{"channels":[{"sampler":0,"target":{"node":3,"path":"scale"}}],"name":"Jump_skew","samplers":[{"input":0,"interpolation":"LINEAR","output":1}]},{"channels":[{"sampler":0,"target":{"node":3,"path":"scale"}}],"name":"RESET","samplers":[{"input":2,"interpolation":"LINEAR","output":3}]},{"channels":[{"sampler":0,"target":{"node":18,"path":"rotation"}},{"sampler":1,"target":{"node":18,"path":"scale"}},{"sampler":2,"target":{"node":17,"path":"rotation"}},{"sampler":3,"target":{"node":17,"path":"scale"}},{"sampler":4,"target":{"node":16,"path":"rotation"}},{"sampler":5,"target":{"node":16,"path":"scale"}}],"name":"BlackholeSpin","samplers":[{"input":4,"interpolation":"LINEAR","output":5},{"input":6,"interpolation":"LINEAR","output":7},{"input":8,"interpolation":"LINEAR","output":9},{"input":10,"interpolation":"LINEAR","output":11},{"input":12,"interpolation":"LINEAR","output":13},{"input":14,"interpolation":"LINEAR","output":15}]},{"channels":[{"sampler":0,"target":{"node":18,"path":"rotation"}},{"sampler":1,"target":{"node":18,"path":"scale"}}],"name":"RESET2","samplers":[{"input":16,"interpolation":"LINEAR","output":17},{"input":18,"interpolation":"LINEAR","output":19}]}],"asset":{"generator":"Godot Engine v4.4.1.stable.official@49a5bc7b616bd04689a2c89e89bda41f50241464","version":"2.0"},"bufferViews":[{"buffer":0,"byteLength":12,"byteOffset":0},{"buffer":0,"byteLength":36,"byteOffset":12},{"buffer":0,"byteLength":4,"byteOffset":48},{"buffer":0,"byteLength":12,"byteOffset":52},{"buffer":0,"byteLength":8,"byteOffset":64},{"buffer":0,"byteLength":32,"byteOffset":72},{"buffer":0,"byteLength":12,"byteOffset":104},{"buffer":0,"byteLength":36,"byteOffset":116},{"buffer":0,"byteLength":8,"byteOffset":152},{"buffer":0,"byteLength":32,"byteOffset":160},{"buffer":0,"byteLength":12,"byteOffset":192},{"buffer":0,"byteLength":36,"byteOffset":204},{"buffer":0,"byteLength":8,"byteOffset":240},{"buffer":0,"byteLength":32,"byteOffset":248},{"buffer":0,"byteLength":12,"byteOffset":280},{"buffer":0,"byteLength":36,"byteOffset":292},{"buffer":0,"byteLength":4,"byteOffset":328},{"buffer":0,"byteLength":16,"byteOffset":332},{"buffer":0,"byteLength":4,"byteOffset":348},{"buffer":0,"byteLength":12,"byteOffset":352}],"buffers":[{"byteLength":364,"uri":"MobiusTrip0.bin"}],"extensionsUsed":["GODOT_single_root"],"nodes":[{"children":[1,8,22],"name":"Level"},{"children":[2,3,4,5,6,7],"name":"Mobius"},{"name":"CollisionShape2D"},{"name":"AnimatedSprite2D"},{"name":"Camera2D"},{"name":"AnimationPlayer"},{"name":"StartDelayTimer"},{"name":"GameLoopTimer"},{"children":[9,10,11,12,13,14],"name":"Tilemap"},{"name":"1"},{"name":"0Platforms"},{"name":"0"},{"name":"-1"},{"name":"-2"},{"children":[15,21],"name":"Area2D"},{"children":[16,17,18,19,20],"name":"BlackHole"},{"name":"BlackHoleTop"},{"name":"BlackHoleMid"},{"name":"BlackHoleBot"},{"name":"AnimationPlayer2"},{"name":"GPUParticles2D"},{"name":"CollisionShape2D2"},{"children":[23],"name":"UiCanvasLayer"},{"children":[24],"name":"Uiholder"},{"children":[25],"name":"inGameUI"},{"children":[26,35],"name":"MarginContainer"},{"children":[27,31],"name":"VBoxContainer2"},{"children":[28],"name":"VBoxContainer"},{"children":[29,30],"name":"HBoxContainer"},{"name":"Up"},{"name":"Teleport"},{"children":[32,33,34],"name":"HBoxContainer2"},{"name":"Left"},{"name":"Down"},{"name":"Right"},{"children":[36],"name":"PanelContainer"},{"children":[37,39],"name":"VBoxContainer3"},{"children":[38],"name":"HBoxContainer3"},{"name":"Timer"},{"name":"ProgressBar"}],"scene":0,"scenes":[{"nodes":[0]}]}